<?xml version="1.0" encoding="UTF-8" standalone="no"?>
<!DOCTYPE svg PUBLIC "-//W3C//DTD SVG 1.1//EN" "http://www.w3.org/Graphics/SVG/1.1/DTD/svg11.dtd">
<svg xmlns="http://www.w3.org/2000/svg"  version="1.1" width="694.0" height="389.0" viewBox="-6.0 -13.0 688.0 376.0">
	<desc>LSD Plot - Sim1</desc>
	<polyline points="205.0,6.0 205.0,304.0" fill="none" stroke="#424242" />
	<polyline points="355.0,6.0 355.0,304.0" fill="none" stroke="#424242" />
	<polyline points="505.0,6.0 505.0,304.0" fill="none" stroke="#424242" />
	<polyline points="56.0,80.0 654.0,80.0" fill="none" stroke="#424242" />
	<polyline points="56.0,155.0 654.0,155.0" fill="none" stroke="#424242" />
	<polyline points="56.0,230.0 654.0,230.0" fill="none" stroke="#424242" />
	<text x="5.0" y="353.0" font-family="Arial" font-size="9pt">Average_1</text>
	<text x="79.0" y="353.0" fill="#ff6347" font-family="Arial" font-size="9pt">Maximum_1</text>
	<polyline points="55.0,303.0 61.0,231.0 67.0,186.0 73.0,181.0 79.0,144.0 85.0,113.0 91.0,92.0 97.0,114.0 103.0,128.0 109.0,135.0 115.0,157.0 121.0,169.0 127.0,171.0 133.0,163.0 139.0,162.0 145.0,110.0 151.0,141.0 158.0,141.0 164.0,158.0 170.0,141.0 176.0,147.0 182.0,165.0 188.0,148.0 194.0,148.0 200.0,160.0 206.0,148.0 212.0,166.0 218.0,130.0 224.0,134.0 230.0,146.0 236.0,148.0 242.0,163.0 248.0,132.0 255.0,135.0 261.0,113.0 267.0,131.0 273.0,123.0 279.0,132.0 285.0,174.0 291.0,137.0 297.0,142.0 303.0,127.0 309.0,116.0 315.0,126.0 321.0,140.0 327.0,124.0 333.0,130.0 339.0,152.0 345.0,150.0 351.0,103.0 358.0,120.0 364.0,158.0 370.0,148.0 376.0,145.0 382.0,145.0 388.0,115.0 394.0,93.0 400.0,100.0 406.0,137.0 412.0,136.0 418.0,141.0 424.0,109.0 430.0,143.0 436.0,114.0 442.0,107.0 448.0,148.0 455.0,124.0 461.0,106.0 467.0,127.0 473.0,118.0 479.0,133.0 485.0,162.0 491.0,153.0 497.0,155.0 503.0,138.0 509.0,131.0 515.0,111.0 521.0,118.0 527.0,126.0 533.0,126.0 539.0,131.0 545.0,110.0 551.0,137.0 558.0,129.0 564.0,131.0 570.0,119.0 576.0,140.0 582.0,143.0 588.0,75.0 594.0,104.0 600.0,117.0 606.0,109.0 612.0,132.0 618.0,111.0 624.0,131.0 630.0,143.0 636.0,164.0 642.0,134.0 648.0,109.0 654.0,116.0" fill="none" stroke="#000000" />
	<polyline points="55.0,244.0 61.0,181.0 67.0,112.0 73.0,155.0 79.0,94.0 85.0,11.0 91.0,70.0 97.0,57.0 103.0,92.0 109.0,61.0 115.0,86.0 121.0,103.0 127.0,157.0 133.0,122.0 139.0,132.0 145.0,77.0 151.0,123.0 158.0,114.0 164.0,113.0 170.0,87.0 176.0,93.0 182.0,68.0 188.0,97.0 194.0,91.0 200.0,126.0 206.0,117.0 212.0,111.0 218.0,51.0 224.0,85.0 230.0,82.0 236.0,78.0 242.0,61.0 248.0,114.0 255.0,87.0 261.0,59.0 267.0,77.0 273.0,43.0 279.0,98.0 285.0,129.0 291.0,94.0 297.0,114.0 303.0,53.0 309.0,86.0 315.0,70.0 321.0,103.0 327.0,65.0 333.0,60.0 339.0,104.0 345.0,96.0 351.0,61.0 358.0,66.0 364.0,121.0 370.0,113.0 376.0,73.0 382.0,73.0 388.0,54.0 394.0,46.0 400.0,82.0 406.0,106.0 412.0,73.0 418.0,105.0 424.0,30.0 430.0,66.0 436.0,85.0 442.0,23.0 448.0,123.0 455.0,84.0 461.0,65.0 467.0,64.0 473.0,86.0 479.0,60.0 485.0,110.0 491.0,101.0 497.0,95.0 503.0,109.0 509.0,56.0 515.0,79.0 521.0,83.0 527.0,95.0 533.0,100.0 539.0,89.0 545.0,87.0 551.0,77.0 558.0,81.0 564.0,75.0 570.0,80.0 576.0,107.0 582.0,58.0 588.0,38.0 594.0,64.0 600.0,78.0 606.0,73.0 612.0,102.0 618.0,88.0 624.0,86.0 630.0,99.0 636.0,116.0 642.0,78.0 648.0,18.0 654.0,58.0" fill="none" stroke="#ff6347" />
	<polyline points="55.0,5.0 655.0,5.0" fill="none" stroke="#b3b3b3" />
	<polyline points="55.0,305.0 655.0,305.0" fill="none" stroke="#b3b3b3" />
	<polyline points="55.0,305.0 55.0,310.0" fill="none" stroke="#b3b3b3" />
	<polyline points="205.0,305.0 205.0,310.0" fill="none" stroke="#b3b3b3" />
	<polyline points="355.0,305.0 355.0,310.0" fill="none" stroke="#b3b3b3" />
	<polyline points="505.0,305.0 505.0,310.0" fill="none" stroke="#b3b3b3" />
	<polyline points="655.0,305.0 655.0,310.0" fill="none" stroke="#b3b3b3" />
	<polyline points="55.0,5.0 55.0,305.0" fill="none" stroke="#b3b3b3" />
	<polyline points="655.0,5.0 655.0,305.0" fill="none" stroke="#b3b3b3" />
	<polyline points="50.0,5.0 55.0,5.0" fill="none" stroke="#b3b3b3" />
	<polyline points="50.0,80.0 55.0,80.0" fill="none" stroke="#b3b3b3" />
	<polyline points="50.0,155.0 55.0,155.0" fill="none" stroke="#b3b3b3" />
	<polyline points="50.0,230.0 55.0,230.0" fill="none" stroke="#b3b3b3" />
	<polyline points="50.0,305.0 55.0,305.0" fill="none" stroke="#b3b3b3" />
	<text x="55.0" y="328.0" fill="#b3b3b3" font-family="Arial" font-size="9pt" text-anchor="middle">1</text>
	<text x="205.0" y="328.0" fill="#b3b3b3" font-family="Arial" font-size="9pt" text-anchor="middle">25</text>
	<text x="355.0" y="328.0" fill="#b3b3b3" font-family="Arial" font-size="9pt" text-anchor="middle">50</text>
	<text x="505.0" y="328.0" fill="#b3b3b3" font-family="Arial" font-size="9pt" text-anchor="middle">75</text>
	<text x="655.0" y="328.0" fill="#b3b3b3" font-family="Arial" font-size="9pt" text-anchor="middle">100</text>
	<text x="45.0" y="10.0" fill="#b3b3b3" font-family="Arial" font-size="9pt" text-anchor="end">9.83</text>
	<text x="45.0" y="85.0" fill="#b3b3b3" font-family="Arial" font-size="9pt" text-anchor="end">8.45</text>
	<text x="45.0" y="160.0" fill="#b3b3b3" font-family="Arial" font-size="9pt" text-anchor="end">7.07</text>
	<text x="45.0" y="235.0" fill="#b3b3b3" font-family="Arial" font-size="9pt" text-anchor="end">5.69</text>
	<text x="45.0" y="310.0" fill="#b3b3b3" font-family="Arial" font-size="9pt" text-anchor="end">4.31</text>
</svg>
